<svg xmlns="http://www.w3.org/2000/svg" width="1200" height="620" viewBox="0 0 1200 620">
<style>
.t{font-family:Arial,sans-serif;fill:#12233a}.h{font-size:20px;font-weight:700}.s{font-size:13px}.b{font-size:12.5px}.box{stroke-width:1.5}.arr{stroke:#2675a8;stroke-width:3;fill:none;marker-end:url(#a)}.fb{stroke:#5c4aa8;stroke-width:2.6;fill:none;marker-end:url(#p)}
</style>
<defs>
 <marker id="a" markerWidth="8" markerHeight="8" refX="7" refY="4" orient="auto"><path d="M0,0 L8,4 L0,8 z" fill="#2675a8"/></marker>
 <marker id="p" markerWidth="8" markerHeight="8" refX="7" refY="4" orient="auto"><path d="M0,0 L8,4 L0,8 z" fill="#5c4aa8"/></marker>
</defs>
<g transform="translate(18 25)"><rect width="205" height="410" fill="#e8f4ff" stroke="#6bb6e8" class="box" rx="10"/><text x="102" y="30" text-anchor="middle" class="t h">Design Inputs</text><g class="t b"><text x="18" y="76">Die size / aspect ratio</text><text x="18" y="123">Foundry / process target</text><text x="18" y="170">Module templates</text><text x="18" y="217">Interconnect / signal counts</text><text x="18" y="264">User constraints</text><text x="18" y="326">Local JSON project state</text></g></g>
<g transform="translate(243 25)"><rect width="205" height="410" fill="#e5f8fb" stroke="#58bfd0" class="box" rx="10"/><text x="102" y="30" text-anchor="middle" class="t h">Architecture</text><g class="t b"><text x="18" y="70">Compute core / cluster</text><text x="18" y="107">CPU reference templates</text><text x="18" y="144">SRAM / cache</text><text x="18" y="181">Router / Crossbar / Beneš</text><text x="18" y="218">PHY / IO blocks</text><text x="18" y="255">Modules + first-class nets</text><text x="18" y="292">Connection manager / ports</text><text x="18" y="346">Measured / Calibrated /</text><text x="18" y="366">Estimated / Heuristic</text></g></g>
<g transform="translate(468 25)"><rect width="205" height="410" fill="#e9f8ec" stroke="#62bd76" class="box" rx="10"/><text x="102" y="30" text-anchor="middle" class="t h">Technology</text><g class="t b"><text x="18" y="70">Logic scaling</text><text x="18" y="107">SRAM scaling</text><text x="18" y="144">Foundry naming map</text><text x="18" y="181">Metal-stack abstraction</text><text x="18" y="218">Frequency / power scaling</text><text x="18" y="255">Yield / wafer assumptions</text><text x="18" y="346">TSMC / Samsung / Intel /</text><text x="18" y="366">GF / SMIC / Huawei Tao</text></g></g>
<g transform="translate(693 25)"><rect width="240" height="410" fill="#fff5df" stroke="#e3ad45" class="box" rx="10"/><text x="120" y="30" text-anchor="middle" class="t h">Physical</text><g class="t b"><text x="18" y="66">Placement + sizing</text><text x="18" y="99">90° rotation / Place-wire</text><text x="18" y="132">Auto partition</text><text x="18" y="165">Hierarchical fabric builder</text><text x="18" y="198">Edge-anchored orthogonal buses</text><text x="18" y="231">Per-net H/V metal allocation</text><text x="18" y="264">Congestion heatmap</text><text x="18" y="297">Multi-tier / W2W stacking</text><text x="18" y="350">J = αCcut + βCwire +</text><text x="18" y="370">γCbalance + δCcongestion</text></g></g>
<g transform="translate(953 25)"><rect width="229" height="410" fill="#ffe9eb" stroke="#df7d89" class="box" rx="10"/><text x="114" y="30" text-anchor="middle" class="t h">Economics + Outputs</text><g class="t b"><text x="18" y="70">Gross / good dies per wafer</text><text x="18" y="107">Stack yield</text><text x="18" y="144">Die / package / bond cost</text><text x="18" y="181">Good-unit cost</text><text x="18" y="238">Interactive pixel planner</text><text x="18" y="275">Architecture comparison</text><text x="18" y="312">Charts / posters</text><text x="18" y="349">JSON / report export</text><text x="18" y="386">arXiv preprint</text></g></g>
<!-- Main-stage arrows live only in 20 px gutters; they do not cross labels. -->
<path d="M223 230 H240" class="arr"/><path d="M448 230 H465" class="arr"/><path d="M673 230 H690" class="arr"/><path d="M933 230 H950" class="arr"/>
<g transform="translate(18 475)"><rect width="1164" height="120" fill="#f0f1ff" stroke="#9297d6" class="box" rx="10"/><text x="18" y="28" class="t h">Benchmark Validation</text><g class="t b"><text x="25" y="75">RTL generators</text><text x="175" y="75">Simulation</text><text x="300" y="75">Yosys synthesis</text><text x="445" y="75">OpenROAD placement</text><text x="625" y="75">Global route</text><text x="760" y="75">Metric extraction</text><text x="925" y="64">Area MAPE · Congestion r</text><text x="925" y="84">Hotspot F1 · Runtime</text></g><path d="M125 72 H165 M245 72 H290 M400 72 H435 M585 72 H615 M710 72 H750 M875 72 H915" class="arr"/></g>
<!-- Feedback paths use a separate horizontal lane at y=455. -->
<path d="M1090 475 V454 H815 V435" class="fb"/><text x="910" y="449" class="t s">calibration</text>
<path d="M570 475 V454 H570 V435" class="fb"/><text x="582" y="468" class="t s">model validation</text>
<path d="M815 475 V454" class="fb"/><text x="827" y="468" class="t s">parameter tuning</text>
</svg>
